<svg width="221" height="212" viewBox="0 0 221 212" fill="none" xmlns="http://www.w3.org/2000/svg">
<path d="M124.891 116.051C135.706 100.606 148.636 88.852 160.778 82.323C172.949 75.7786 184.179 74.5515 191.746 79.8499C199.313 85.1482 202.001 96.1208 200.013 109.796C198.031 123.439 191.408 139.609 180.594 155.054C169.779 170.498 156.849 182.252 144.707 188.781C132.536 195.326 121.306 196.553 113.739 191.255C106.173 185.956 103.485 174.984 105.472 161.309C107.454 147.666 114.077 131.495 124.891 116.051Z" stroke="#44FFA1"/>
<path d="M103.594 101.138C114.408 85.693 127.338 73.9391 139.48 67.41C151.651 60.8656 162.881 59.6385 170.448 64.9369C178.015 70.2353 180.703 81.2079 178.716 94.8827C176.733 108.526 170.11 124.696 159.296 140.141C148.481 155.586 135.551 167.339 123.409 173.868C111.239 180.413 100.008 181.64 92.4416 176.342C84.8747 171.043 82.1869 160.071 84.174 146.396C86.1565 132.753 92.7791 116.582 103.594 101.138Z" stroke="#44FFA1"/>
<path opacity="0.75" d="M83.1147 86.7983C93.9297 71.3528 106.815 59.5662 118.884 52.9852C130.983 46.3877 142.109 45.0938 149.559 50.3107C157.01 55.5277 159.599 66.4247 157.538 80.0509C155.482 93.6429 148.813 109.782 137.998 125.228C127.183 140.673 114.297 152.46 102.228 159.041C90.129 165.638 79.0036 166.932 71.553 161.715C64.1025 156.498 61.5133 145.601 63.5747 131.975C65.6309 118.383 72.2996 102.244 83.1147 86.7983Z" stroke="#44FFA1"/>
<path opacity="0.5" d="M60.9977 71.3116C71.8121 55.8669 84.7424 44.113 96.8845 37.5839C109.055 31.0396 120.285 29.8125 127.852 35.1109C135.419 40.4092 138.107 51.3818 136.12 65.0567C134.137 78.6996 127.514 94.8701 116.7 110.315C105.886 125.759 92.9552 137.513 80.8132 144.042C68.6426 150.587 57.4125 151.814 49.8456 146.516C42.2788 141.217 39.5909 130.245 41.578 116.57C43.5605 102.927 50.1832 86.7563 60.9977 71.3116Z" stroke="#44FFA1"/>
<path opacity="0.25" d="M39.6996 56.3986C50.5147 40.9531 63.4 29.1665 75.469 22.5856C87.5685 15.9881 98.6938 14.6941 106.144 19.9111C113.595 25.128 116.184 36.025 114.123 49.6512C112.067 63.2432 105.398 79.3827 94.5828 94.8282C83.7678 110.274 70.8824 122.06 58.8134 128.641C46.714 135.239 35.5886 136.533 28.138 131.316C20.6874 126.099 18.0982 115.202 20.1596 101.576C22.2158 87.9836 28.8846 71.8441 39.6996 56.3986Z" stroke="#44FFA1"/>
</svg>
