<svg width="340" height="317" viewBox="0 0 340 317" fill="none" xmlns="http://www.w3.org/2000/svg">
<path d="M194.03 171.766C207.873 145.731 225.72 125.015 243.363 112.56C261.031 100.087 278.356 95.9834 291.267 102.848C304.178 109.713 310.464 126.371 310.003 147.994C309.543 169.585 302.349 195.965 288.506 221.999C274.663 248.033 256.816 268.749 239.174 281.204C221.505 293.678 204.181 297.781 191.269 290.916C178.358 284.051 172.072 267.394 172.533 245.771C172.994 224.18 180.188 197.8 194.03 171.766Z" stroke="#44FFA1"/>
<path d="M158.03 152.766C171.873 126.731 189.72 106.015 207.363 93.5603C225.031 81.0868 242.356 76.9834 255.267 83.8483C268.178 90.7133 274.464 107.371 274.003 128.994C273.543 150.585 266.349 176.965 252.506 202.999C238.663 229.033 220.816 249.749 203.174 262.204C185.505 274.678 168.181 278.781 155.269 271.916C142.358 265.051 136.072 248.394 136.533 226.771C136.994 205.18 144.188 178.8 158.03 152.766Z" stroke="#44FFA1"/>
<path opacity="0.75" d="M123.914 134.235C137.757 108.199 155.506 87.4303 172.99 74.8901C190.503 62.3296 207.604 58.1153 220.267 64.8483C232.93 71.5813 238.999 88.1158 238.379 109.658C237.759 131.165 230.466 157.494 216.623 183.529C202.78 209.565 185.03 230.334 167.546 242.874C150.034 255.435 132.933 259.649 120.27 252.916C107.607 246.183 101.537 229.649 102.158 208.107C102.777 186.599 110.07 160.271 123.914 134.235Z" stroke="#44FFA1"/>
<path opacity="0.5" d="M87.0305 113.766C100.873 87.7311 118.72 67.0154 136.363 54.5603C154.031 42.0868 171.356 37.9834 184.267 44.8483C197.178 51.7133 203.464 68.3706 203.003 89.9936C202.543 111.585 195.349 137.965 181.506 163.999C167.663 190.033 149.816 210.749 132.174 223.204C114.505 235.678 97.1805 239.781 84.2694 232.916C71.3583 226.051 65.0724 209.394 65.5334 187.771C65.9936 166.18 73.1877 139.8 87.0305 113.766Z" stroke="#44FFA1"/>
<path opacity="0.25" d="M50.9135 95.235C64.7569 69.1994 82.5062 48.4303 99.9902 35.8901C117.503 23.3296 134.604 19.1153 147.267 25.8483C159.93 32.5813 165.999 49.1158 165.379 70.6579C164.759 92.1651 157.466 118.494 143.623 144.529C129.78 170.565 112.03 191.334 94.5464 203.874C77.0341 216.435 59.9325 220.649 47.2696 213.916C34.6066 207.183 28.5374 190.649 29.1577 169.107C29.7771 147.599 37.0702 121.271 50.9135 95.235Z" stroke="#44FFA1"/>
</svg>
